<svg id="Component_40_3" data-name="Component 40 – 3" xmlns="http://www.w3.org/2000/svg" width="25.105" height="45.358" viewBox="0 0 25.105 45.358">
  <path id="Path_776" data-name="Path 776" d="M12.553,16.921A2.577,2.577,0,0,0,9.978,19.5v9.16l-.38.286a4.923,4.923,0,1,0,5.91,0l-.381-.286V19.5a2.577,2.577,0,0,0-2.574-2.576" fill="#fdca0f"/>
  <path id="Path_777" data-name="Path 777" d="M12.553,45.358A12.567,12.567,0,0,1,0,32.806,12.428,12.428,0,0,1,4.315,23.35V8.237a8.238,8.238,0,0,1,16.476,0V23.35A12.427,12.427,0,0,1,25.1,32.806,12.566,12.566,0,0,1,12.553,45.358m0-41.848A4.733,4.733,0,0,0,7.824,8.237V25.062l-.7.525a9.038,9.038,0,1,0,14.47,7.219,8.971,8.971,0,0,0-3.615-7.219l-.7-.525V8.237A4.733,4.733,0,0,0,12.553,3.51" fill="#184a97"/>
  <rect id="Rectangle_2271" data-name="Rectangle 2271" width="1.426" height="2.486" transform="translate(20.151 9.407)" fill="#184a97"/>
  <rect id="Rectangle_2272" data-name="Rectangle 2272" width="1.426" height="2.486" transform="translate(20.151 14.434)" fill="#184a97"/>
  <rect id="Rectangle_2273" data-name="Rectangle 2273" width="1.426" height="2.487" transform="translate(20.151 19.463)" fill="#184a97"/>
</svg>
